<?xml version="1.0" encoding="utf-8"?>
<!-- Generator: Adobe Illustrator 27.6.1, SVG Export Plug-In . SVG Version: 6.00 Build 0)  -->
<svg version="1.1" id="Layer_1" xmlns="http://www.w3.org/2000/svg" xmlns:xlink="http://www.w3.org/1999/xlink" x="0px" y="0px"
	 viewBox="0 0 309 312" style="enable-background:new 0 0 309 312;" xml:space="preserve">
<style type="text/css">
	.st0{opacity:0.5;}
	.st1{fill:#445F7A;}
</style>
<g class="st0">
	<g>
		<g>
			<g>
				<path class="st1" d="M62.2,180.9c-0.2-1.1-1.2-1.8-2.3-1.6c-1.1,0.2-1.8,1.2-1.6,2.3c0.1,0.8-0.2,1.3-0.4,1.6
					c-0.2,0.3-0.7,0.7-1.5,0.7H26.8c-0.8,0-1.3-0.4-1.5-0.7c-0.2-0.3-0.6-0.8-0.4-1.6c0.6-3,1.7-4.9,2.7-6.8
					c1.3-2.3,2.7-4.7,2.7-8.3v-2.9c0-6.2,5-11.3,11.2-11.3h0.4c6.1,0.1,11.1,5.2,11.1,11.3v2.9c0,3.1,1,5.2,2,7c0.4,0.7,1,1,1.7,1
					c0.3,0,0.6-0.1,0.9-0.2c0.9-0.5,1.3-1.7,0.8-2.7c-0.9-1.7-1.5-3.2-1.5-5.1v-2.9c0-4-1.6-7.8-4.4-10.7c-2.4-2.5-5.5-4-8.9-4.4
					v-2.9c0-1.1-0.9-2-2-2c-1.1,0-2,0.9-2,2v2.9c-7.5,1-13.3,7.4-13.3,15.1v2.9c0,2.6-0.9,4.3-2.1,6.4c-1.2,2.1-2.5,4.4-3.2,8
					c-0.3,1.7,0.1,3.5,1.3,4.8c1.1,1.3,2.8,2.1,4.5,2.1h9c0,3.2,2.6,5.9,5.9,5.9c3.2,0,5.9-2.6,5.9-5.9h9c1.8,0,3.4-0.8,4.5-2.1
					C62.1,184.4,62.6,182.7,62.2,180.9z M41.6,189.8c-1.1,0-2-0.9-2-2h3.9C43.6,189,42.7,189.8,41.6,189.8z"/>
			</g>
		</g>
		<g>
			<g>
				<path class="st1" d="M27.2,148.1c-0.8-0.7-2-0.7-2.8,0.2c-3.8,4.2-5.9,9.7-5.9,15.4c0,1.1,0.9,2,2,2c1.1,0,2-0.9,2-2
					c0-4.7,1.7-9.3,4.9-12.8C28,150,28,148.8,27.2,148.1z"/>
			</g>
		</g>
		<g>
			<g>
				<path class="st1" d="M58.8,148.2c-0.7-0.8-2-0.9-2.8-0.2c-0.8,0.7-0.9,2-0.2,2.8c3.1,3.5,4.9,8.1,4.9,12.8c0,1.1,0.9,2,2,2
					c1.1,0,2-0.9,2-2C64.7,157.9,62.6,152.5,58.8,148.2z"/>
			</g>
		</g>
	</g>
	<g>
		<g>
			<g>
				<path class="st1" d="M27.5,91.8c-10.6,0-19.2,8.6-19.2,19.2s8.6,19.2,19.2,19.2c10.6,0,19.2-8.6,19.2-19.2
					C46.8,100.4,38.2,91.8,27.5,91.8z M27.5,127.3c-9,0-16.2-7.3-16.2-16.2c0-9,7.3-16.2,16.2-16.2c9,0,16.2,7.3,16.2,16.2
					C43.8,120,36.5,127.3,27.5,127.3z"/>
			</g>
		</g>
		<g>
			<g>
				<path class="st1" d="M27.5,101.5c-0.8,0-1.5,0.7-1.5,1.5v9.7c0,0.8,0.7,1.5,1.5,1.5c0.8,0,1.5-0.7,1.5-1.5V103
					C29,102.2,28.4,101.5,27.5,101.5z"/>
			</g>
		</g>
		<g>
			<g>
				<path class="st1" d="M27.5,116c1.1,0,2,0.9,2,2c0,1.1-0.9,2-2,2c-1.1,0-2-0.9-2-2C25.5,116.9,26.4,116,27.5,116z"/>
			</g>
		</g>
	</g>
	<g>
		<path class="st1" d="M290.4,172.4v-22.9h-34.2v42.8h15.8c1.1,0,2.1,0.9,2.1,2.1c0,1.1-0.9,2.1-2.1,2.1h-17.8
			c-1.1,0-2.1-0.9-2.1-2.1v-46.9c0-1.1,0.9-2.1,2.1-2.1h38.4c1.1,0,2.1,0.9,2.1,2.1v25c0,1.1-0.9,2.1-2.1,2.1
			C291.3,174.5,290.4,173.6,290.4,172.4z M301,177.4c-0.9-0.8-2.2-0.7-2.9,0.2l-11.3,12.5l-5.6-5.4c-0.8-0.8-2.1-0.8-2.9,0.1
			c-0.8,0.8-0.8,2.1,0.1,2.9l7.2,6.9c0.4,0.4,0.9,0.6,1.4,0.6c0,0,0,0,0.1,0c0.5,0,1.1-0.3,1.4-0.7l12.7-14.1
			C301.9,179.5,301.8,178.2,301,177.4z M282.9,157.4h-18.5c-1.1,0-2.1,0.9-2.1,2.1c0,1.1,0.9,2.1,2.1,2.1h18.5
			c1.1,0,2.1-0.9,2.1-2.1C284.9,158.3,284,157.4,282.9,157.4z M284.9,170.7c0-1.1-0.9-2.1-2.1-2.1h-18.5c-1.1,0-2.1,0.9-2.1,2.1
			c0,1.1,0.9,2.1,2.1,2.1h18.5C284,172.8,284.9,171.9,284.9,170.7z M264.4,179.6c-1.1,0-2.1,0.9-2.1,2.1c0,1.1,0.9,2.1,2.1,2.1h5.5
			c1.1,0,2.1-0.9,2.1-2.1c0-1.1-0.9-2.1-2.1-2.1H264.4z"/>
	</g>
	<g>
		<g>
			<path class="st1" d="M191,158c-2.8-2.8-7.7-4.4-13.2-4.4c-2,0-4,0.2-5.7,0.7c-6.1,1.6-7.9,5.7-9.2,10.6l-3.5,0.9v-9
				c8.7-0.7,15.6-8,15.6-16.9c0-9.3-7.6-16.9-16.9-16.9c-9.3,0-16.9,7.6-16.9,16.9c0,8.9,6.9,16.2,15.6,16.9v9l-3.5-0.9
				c-1.4-4.8-3.2-8.9-9.2-10.6c-1.7-0.5-3.7-0.7-5.7-0.7c-5.5,0-10.4,1.6-13.2,4.4c-0.3,0.3-0.5,0.8-0.3,1.3
				c0.7,2.7,2.7,5.5,5.6,7.9c2.7,2.2,5.9,3.9,8.8,4.7c1.2,0.3,2.4,0.5,3.5,0.5c0,0,0,0,0,0c4.1,0,7-2.3,9.8-5l4.2,1.1v1.3
				c-3.9,0.4-6.9,2.4-7.6,5.1h-1.7c-0.4,0-0.7,0.2-1,0.4c-0.2,0.3-0.4,0.6-0.3,1l0.6,5.4h-3c-0.5,0-0.9,0.2-1.1,0.6
				c-0.2,0.4-0.3,0.9-0.1,1.3l2.6,5.2c0.2,0.4,0.7,0.7,1.2,0.7h23.4c0.5,0,0.9-0.3,1.2-0.7l2.6-5.2c0.2-0.4,0.2-0.9-0.1-1.3
				c-0.2-0.4-0.7-0.6-1.1-0.6h-3l0.6-5.4c0-0.4-0.1-0.7-0.3-1c-0.2-0.3-0.6-0.4-1-0.4H167c-0.7-2.7-3.8-4.8-7.6-5.1v-1.3l4.2-1.1
				c2.8,2.7,5.6,5,9.8,5c1.1,0,2.3-0.2,3.5-0.5c3-0.8,6.2-2.5,8.8-4.7c2.9-2.4,4.9-5.2,5.6-7.9C191.4,158.8,191.3,158.3,191,158z
				 M136.2,162.6c0.2,0.3,0.5,0.5,0.8,0.6l12.6,3.4c-2.3,2.1-4.3,3.2-6.8,3.2c-0.9,0-1.8-0.1-2.8-0.4c-4.8-1.3-10.7-5.5-12.4-10.1
				c2.4-1.9,6.4-3.1,10.7-3.1c1.8,0,3.5,0.2,5,0.6c4,1.1,5.6,3.2,7,7.3l-12.6-3.4c-0.1,0-0.2,0-0.3,0c-0.6,0-1.1,0.4-1.3,1
				C136,161.9,136,162.3,136.2,162.6z M170.2,184.4l-1.3,2.6h-21.8l-1.3-2.6H170.2z M167.2,177.6l-0.5,4.2h-17.4l-0.5-4.2H167.2z
				 M164.2,175h-12.2c0.9-1.5,3.3-2.6,6.1-2.6C160.8,172.4,163.2,173.5,164.2,175z M159.4,154.2v-8c1.5-0.5,2.6-2,2.6-3.7
				c0-1-0.4-2-1.1-2.8c-0.7-0.7-1.7-1.1-2.8-1.1c-0.3,0-0.7-0.1-0.9-0.4c-0.2-0.2-0.4-0.6-0.4-0.9c0-0.7,0.6-1.3,1.3-1.3
				c0.3,0,0.7,0.1,0.9,0.4c0.5,0.5,1.3,0.5,1.8,0c0.5-0.5,0.5-1.3,0-1.8c-0.4-0.4-0.9-0.7-1.5-0.9v-4.1c0-0.7-0.6-1.3-1.3-1.3
				c-0.7,0-1.3,0.6-1.3,1.3v4.1c-1.5,0.5-2.6,2-2.6,3.7c0,1,0.4,2,1.1,2.8c0.7,0.7,1.7,1.1,2.8,1.1c0.3,0,0.7,0.1,0.9,0.4
				c0.2,0.2,0.4,0.6,0.4,0.9c0,0.7-0.6,1.3-1.3,1.3c-0.3,0-0.7-0.1-0.9-0.4c-0.5-0.5-1.3-0.5-1.8,0c-0.5,0.5-0.5,1.3,0,1.8
				c0.4,0.4,0.9,0.7,1.5,0.9v8c-7.3-0.7-13-6.8-13-14.2c0-7.9,6.4-14.3,14.3-14.3c7.9,0,14.3,6.4,14.3,14.3
				C172.4,147.4,166.6,153.5,159.4,154.2z M176.2,169.4c-1,0.3-1.9,0.4-2.8,0.4c-2.5,0-4.5-1.1-6.8-3.2l12.6-3.4
				c0.3-0.1,0.6-0.3,0.8-0.6c0.2-0.3,0.2-0.7,0.1-1c-0.2-0.6-0.7-1-1.3-1c-0.1,0-0.2,0-0.3,0l-12.6,3.4c1.3-4.1,3-6.2,7-7.3
				c1.5-0.4,3.2-0.6,5-0.6c4.4,0,8.4,1.2,10.7,3.1C186.8,163.8,181,168.1,176.2,169.4z"/>
		</g>
	</g>
	<g>
		<path class="st1" d="M27.2,17.3l2.9,4.7l-5.2,3.8l-3-4.8l-4.2,2.6L15,19.4l4.2-2.6l2.6,4.2L27.2,17.3z M27.5,30l-2.6-4.2l-4.2,2.6
			l2.6,4.2L27.5,30z M51.6,20.9l-0.5,1c-0.8,4.6-3.7,7.7-5.8,9C40.7,33.7,36,32,35.8,32c-3.1-0.7-5.9-0.3-8.1,1.1
			c-4.2,2.6-5.4,8-5.4,8l-0.3,1.3l16.7,27l-2.7,1.7L6.2,23c-0.6,0.2-1.2,0-1.6-0.5c-0.4-0.6-0.2-1.4,0.4-1.8l2.2-1.4
			c0.6-0.4,1.4-0.2,1.8,0.4c0.3,0.5,0.2,1.1-0.2,1.6l0.8,1.3l0,0c1.7-4.2,4-7.2,6.6-8.8c4.8-3,9.2-0.5,9.3-0.4
			c3.7,2.2,6.4,1.5,8,0.5c0.7-0.4,1-0.8,1-0.8c3.7-3.2,5.2-6.9,5.8-8.3C41.1,3.4,42.3,6,42.3,6L51.6,20.9z M39.9,8.3l0.7,1.1
			l1.7-1.3l-1.3-2.1C40.7,6.5,40.4,7.5,39.9,8.3z M21.9,38.6L21.1,39l0.4,0.6C21.6,39.3,21.7,38.9,21.9,38.6z M35.6,30.8L35,29.8
			l-0.6,0.8C34.8,30.7,35.2,30.7,35.6,30.8z M39.6,28l-2.3-3.7L42,21l-2.6-4.2l-4.6,3.3l-2.7-4.4c-0.5,0.1-1.1,0.2-1.8,0.2l-3,1.4
			l-1.7-2.7c-0.2-0.1-0.3-0.2-0.5-0.3c-0.1,0-0.5-0.3-1.1-0.5l-4.7,2.9l-1.6-2.5c-0.3,0.1-0.5,0.3-0.8,0.4c-1.1,0.7-2.1,1.6-3,2.8
			l1.2,1.9l-3.7,2.3c-0.2,0.4-0.3,0.7-0.5,1.1l2.3,3.6l4.5-2.8l3,4.8l-4.5,2.8l2.6,4.2l4.5-2.8l1.1,1.8c0.7-0.9,1.6-1.7,2.7-2.3
			c0.4-0.3,0.9-0.5,1.3-0.7L27.5,30l5.3-3.8L30.1,22l4.7-1.9l2.6,4.2l-4.6,1.9l2.2,3.5L39.6,28z M49.9,20.3l-0.1-0.1l-1.6,1.5
			L46,18.1l1.7-1.3l-2.8-4.5l-1.5,1.6l-2.8-4.5l-2.4,1.5c-0.4,0.6-0.9,1.1-1.4,1.7l2.6,4.2l4-2.9l2.6,4.2L42,21l2.3,3.7l-4.5,3.5
			l1.9,3c1-0.2,2.1-0.6,3.1-1.2c0.7-0.4,1.3-0.9,1.9-1.5l-2.3-3.7l4-3l1.3,2.1L49.9,20.3z"/>
	</g>
	<g>
		<g>
			<path class="st1" d="M198.3,28.4c-0.8-2.5-3-4.1-5.6-4.1h-10.8c-0.7,0-1.3-0.4-1.5-1.1L177,12.9c-0.8-2.5-3-4-5.6-4
				c-2.6,0-4.8,1.6-5.6,4l-3.3,10.4c-0.2,0.6-0.8,1.1-1.5,1.1h-10.8c-2.6,0-4.8,1.6-5.6,4.1c-0.8,2.5,0,5,2.1,6.6l8.8,6.4
				c0.6,0.4,0.8,1.1,0.6,1.8l-3.4,10.3c-0.8,2.5,0,5,2.1,6.5c1,0.8,2.2,1.1,3.4,1.1c1.2,0,2.4-0.4,3.4-1.1l8.8-6.4
				c0.6-0.4,1.3-0.4,1.9,0l8.8,6.4c2.1,1.5,4.8,1.5,6.9,0c2.1-1.5,2.9-4.1,2.1-6.5l-2.3-7.1c-0.4-1.1-1.6-1.7-2.7-1.4
				c-1.1,0.4-1.7,1.6-1.4,2.7l2.3,7.1c0.3,1-0.4,1.6-0.6,1.8c-0.2,0.2-1,0.6-1.9,0l-8.8-6.4c-2.1-1.5-4.8-1.5-6.9,0l-8.8,6.4
				c-0.9,0.6-1.7,0.2-1.9,0c-0.2-0.2-0.9-0.8-0.6-1.8l3.3-10.3c0.8-2.4-0.1-5-2.1-6.5l-8.8-6.4c-0.9-0.6-0.7-1.6-0.6-1.8
				c0.1-0.3,0.4-1.1,1.5-1.1H161c2.5,0,4.8-1.6,5.6-4l3.3-10.4c0.3-1,1.3-1.1,1.5-1.1c0.3,0,1.2,0.1,1.5,1.1l3.4,10.4
				c0.8,2.4,3,4,5.6,4h10.8c1.1,0,1.4,0.9,1.5,1.1c0.1,0.3,0.3,1.2-0.6,1.8l-6,4.3c-0.9,0.7-1.2,2-0.5,3c0.7,0.9,2,1.2,3,0.5l6-4.3
				C198.3,33.4,199.1,30.8,198.3,28.4z"/>
		</g>
	</g>
	<g>
		<g>
			<g>
				<path class="st1" d="M254.4,11.3c-5.3,0-10,2.3-13.2,6c-4.1-3.7-9.5-6-15.5-6c-12.7,0-23,10.3-23,23c0,5.1,1.6,9.9,4.7,13.9
					c0,0,0,0,0,0.1c3.6,4.5,5.6,9.6,5.5,14.4c0,0.5,0.3,1,0.8,1.3c0.2,0.1,0.4,0.1,0.6,0.1c0.3,0,0.6-0.1,0.9-0.3
					c2.4-2.1,4.6-4.4,6.3-6.8c1.4,0.3,2.8,0.4,4.2,0.4c9,0,16.8-5.2,20.6-12.8c0.5,0.2,0.9,0.5,1.4,0.7c1.8,2.7,4,5.3,6.6,7.5
					c0.3,0.2,0.6,0.3,0.9,0.3c0.2,0,0.4,0,0.6-0.1c0.5-0.2,0.8-0.8,0.7-1.3c-0.1-1.7,0.1-3.5,0.6-5.3c4-0.6,7.6-2.6,10.3-5.6
					c3-3.2,4.6-7.4,4.6-11.8C272,19.2,264.1,11.3,254.4,11.3z M225.7,54.6c-0.9,0-1.7-0.1-2.5-0.2c1-1.5,1.8-3.1,2.4-4.7
					c0.3-0.7,0-1.5-0.7-1.8c-0.7-0.3-1.5,0-1.8,0.7c-1.6,3.8-4.2,7.5-7.6,11c-0.6-4.5-2.6-9.1-5.9-13.2c-2.7-3.6-4.1-7.8-4.1-12.3
					c0-11.2,9.1-20.3,20.3-20.3c11.2,0,20.3,9.1,20.3,20.3C246,45.5,236.9,54.6,225.7,54.6z M258.2,43.3c0.3-0.7,0.7-1.3,1.1-2
					c0.4-0.6,0.2-1.5-0.4-1.9c-0.6-0.4-1.5-0.2-1.9,0.4c-1,1.5-1.7,3.1-2.3,4.7c0,0.1,0,0.1-0.1,0.2c-0.4,1.3-0.7,2.6-0.9,3.9
					c-1.6-1.6-3-3.4-4.1-5.2c-0.2-0.2-0.4-0.4-0.7-0.5c-0.6-0.2-1.2-0.5-1.7-0.8c0.4-1.2,0.8-2.4,1-3.7h5.8c0.7,0,1.4-0.6,1.4-1.4
					c0-0.7-0.6-1.4-1.4-1.4h-5.5c0-0.4,0-0.9,0-1.4c0-0.5,0-0.9,0-1.4h15.9c0.7,0,1.4-0.6,1.4-1.4c0-0.7-0.6-1.4-1.4-1.4h-16.2
					c-0.2-0.9-0.4-1.8-0.7-2.7h16.9c0.7,0,1.4-0.6,1.4-1.4c0-0.7-0.6-1.4-1.4-1.4h-17.9c-0.9-2-2.1-3.9-3.6-5.6
					c2.7-3.2,6.8-5.2,11.3-5.2c8.2,0,14.9,6.7,14.9,14.9C269.3,35.8,264.7,41.6,258.2,43.3z"/>
			</g>
		</g>
		<g>
			<g>
				<path class="st1" d="M260.9,19.4h-13.5c-0.7,0-1.4,0.6-1.4,1.4c0,0.7,0.6,1.4,1.4,1.4h13.5c0.7,0,1.4-0.6,1.4-1.4
					C262.3,20,261.7,19.4,260.9,19.4z"/>
			</g>
		</g>
		<g>
			<g>
				<path class="st1" d="M230.9,24.9H216c-0.7,0-1.4,0.6-1.4,1.4c0,0.7,0.6,1.4,1.4,1.4h14.9c0.7,0,1.4-0.6,1.4-1.4
					C232.2,25.5,231.6,24.9,230.9,24.9z"/>
			</g>
		</g>
		<g>
			<g>
				<path class="st1" d="M235.8,30.3h-20.3c-0.8,0-1.4,0.6-1.4,1.4c0,0.7,0.6,1.4,1.4,1.4h20.3c0.7,0,1.4-0.6,1.4-1.4
					C237.2,30.9,236.6,30.3,235.8,30.3z"/>
			</g>
		</g>
		<g>
			<g>
				<path class="st1" d="M235.8,35.7h-20.3c-0.8,0-1.4,0.6-1.4,1.4c0,0.7,0.6,1.4,1.4,1.4h20.3c0.7,0,1.4-0.6,1.4-1.4
					C237.2,36.3,236.6,35.7,235.8,35.7z"/>
			</g>
		</g>
		<g>
			<g>
				<path class="st1" d="M230.4,41.1h-14.9c-0.7,0-1.4,0.6-1.4,1.4c0,0.7,0.6,1.4,1.4,1.4h14.9c0.7,0,1.4-0.6,1.4-1.4
					C231.8,41.7,231.2,41.1,230.4,41.1z"/>
			</g>
		</g>
		<g>
			<g>
				<path class="st1" d="M235.8,41.1c-0.8,0-1.4,0.6-1.4,1.4c0,0.7,0.6,1.4,1.4,1.4c0.7,0,1.4-0.6,1.4-1.4
					C237.2,41.7,236.6,41.1,235.8,41.1z"/>
			</g>
		</g>
	</g>
	<g>
		<g>
			<g>
				<path class="st1" d="M271.7,60.4c-0.1-0.1-0.3-0.2-0.5-0.2c-0.2,0-0.4,0.1-0.5,0.2c-0.1,0.1-0.2,0.3-0.2,0.5
					c0,0.2,0.1,0.4,0.2,0.5c0.1,0.1,0.3,0.2,0.5,0.2c0.2,0,0.4-0.1,0.5-0.2c0.1-0.1,0.2-0.3,0.2-0.5
					C271.9,60.8,271.9,60.6,271.7,60.4z"/>
			</g>
		</g>
		<g>
			<g>
				<path class="st1" d="M295.2,47.3c-0.1-0.1-0.3-0.2-0.5-0.2c-0.2,0-0.4,0.1-0.5,0.2c-0.1,0.1-0.2,0.3-0.2,0.5
					c0,0.2,0.1,0.4,0.2,0.5c0.1,0.1,0.3,0.2,0.5,0.2c0.2,0,0.4-0.1,0.5-0.2c0.1-0.1,0.2-0.3,0.2-0.5
					C295.5,47.7,295.4,47.5,295.2,47.3z"/>
			</g>
		</g>
		<g>
			<g>
				<path class="st1" d="M287.9,35c-7,0-12.8,5.7-12.8,12.8c0,7,5.7,12.8,12.8,12.8c7.1,0,12.8-5.7,12.8-12.8
					C300.7,40.8,294.9,35,287.9,35z M287.9,36.5c3.5,0,6.6,1.6,8.7,4.1l-0.8,0.8c-0.3-0.1-0.6-0.2-1-0.2c-1.2,0-2.3,1-2.3,2.3
					c0,0.3,0.1,0.6,0.2,0.8l-4.4,3.9c-0.2-0.1-0.5-0.1-0.8-0.1c-0.5,0-1,0.2-1.4,0.5l-3.6-2.3c0-0.1,0-0.2,0-0.3
					c0-1.2-1-2.3-2.3-2.3c-1.2,0-2.3,1-2.3,2.3c0,0.2,0,0.4,0.1,0.6l-1.5,1C276.7,41.5,281.8,36.5,287.9,36.5z M295.5,43.4
					c0,0.4-0.3,0.8-0.8,0.8c-0.4,0-0.8-0.3-0.8-0.8c0-0.4,0.3-0.8,0.8-0.8C295.2,42.7,295.5,43,295.5,43.4z M279.5,55.4
					c-1.5-1.7-2.5-3.7-2.8-6.1l2.3-1.6c0.2,0.1,0.4,0.2,0.6,0.3V55.4z M280.3,46.7c-0.4,0-0.8-0.3-0.8-0.8c0-0.4,0.3-0.8,0.8-0.8
					c0.4,0,0.8,0.3,0.8,0.8C281,46.3,280.7,46.7,280.3,46.7z M286.7,59c-2.1-0.2-4.1-1-5.7-2.3v-8.7c0.3-0.1,0.6-0.3,0.8-0.5
					l3.5,2.3c0,0.2-0.1,0.3-0.1,0.5c0,1,0.6,1.8,1.5,2.1V59z M287.5,51.1c-0.4,0-0.7-0.3-0.7-0.8c0-0.4,0.3-0.8,0.7-0.8
					c0.4,0,0.8,0.3,0.8,0.8C288.3,50.7,287.9,51.1,287.5,51.1z M295.5,56.2v-5.2c0-0.4-0.3-0.8-0.8-0.8c-0.4,0-0.7,0.3-0.7,0.8v6.4
					c-1.7,1.1-3.6,1.7-5.7,1.8v-6.7c0.9-0.3,1.5-1.1,1.5-2.1c0-0.4-0.1-0.8-0.3-1.1l4.2-3.7c0.3,0.2,0.7,0.3,1.1,0.3
					c1.2,0,2.3-1,2.3-2.3c0-0.3-0.1-0.7-0.2-1l0.7-0.7c1.1,1.7,1.7,3.8,1.7,6C299.2,51.1,297.7,54.1,295.5,56.2z"/>
			</g>
		</g>
		<g>
			<g>
				<path class="st1" d="M304.4,34.8c0.3-0.3,0.3-0.8,0-1.1c-0.3-0.3-0.8-0.3-1.1,0l-2.9,2.9c-0.2-0.2-0.5-0.5-0.7-0.7
					c-3.2-3.2-7.4-4.9-11.9-4.9c-4.5,0-8.7,1.7-11.9,4.9c-3.2,3.2-4.9,7.4-4.9,11.9c0,1.1,0.1,2.2,0.3,3.3l-5,3.4
					c-0.3,0.2-0.4,0.7-0.2,1c0.1,0.2,0.4,0.3,0.6,0.3c0.1,0,0.3,0,0.4-0.1l4.5-3.1c0.5,1.6,1.2,3.1,2.1,4.5l-1.3,1.3
					c-0.3,0.3-0.3,0.8,0,1.1c0.1,0.1,0.3,0.2,0.5,0.2c0.2,0,0.4-0.1,0.5-0.2l1.1-1.1c0.4,0.4,0.8,0.9,1.2,1.3
					c0.4,0.4,0.8,0.8,1.3,1.2l-6.7,6.7c-0.7,0.7-1.8,0.7-2.5,0c-0.7-0.7-0.7-1.8,0-2.4l1.4-1.4c0.3-0.3,0.3-0.8,0-1.1
					c-0.3-0.3-0.8-0.3-1.1,0l-1.4,1.4c-1.3,1.3-1.3,3.3,0,4.6c0.6,0.6,1.5,1,2.3,1c0.8,0,1.6-0.3,2.3-0.9l6.9-6.9
					c2.7,1.8,6,2.8,9.3,2.8c4.5,0,8.7-1.7,11.9-4.9c3.2-3.2,4.9-7.4,4.9-11.9c0-3.6-1.1-7.1-3.3-10L304.4,34.8z M303.1,47.8
					c0,8.4-6.8,15.3-15.3,15.3c-8.4,0-15.3-6.8-15.3-15.3c0-8.4,6.8-15.3,15.3-15.3C296.3,32.5,303.1,39.4,303.1,47.8z"/>
			</g>
		</g>
	</g>
	<g>
		<g>
			<g>
				<path class="st1" d="M233.8,126.6l-13.4-13.4h8.8c0.8,0,1.4-0.6,1.4-1.4v-6.1c0-2.4-1.3-4.6-3.3-5.7c0.5-0.7,0.8-1.5,0.8-2.5
					v-3.9c0-2.4-1.9-4.3-4.3-4.3h-1.5c-1,0-2,0.3-2.7,0.9c-3.6-7.6-11.4-12.9-20.4-12.9c-8.9,0-16.7,5.2-20.4,12.8
					c-0.7-0.5-1.5-0.8-2.4-0.8h-1.5c-2.6,0-4.7,2.1-4.7,4.7v3.2c0,1,0.3,2,0.9,2.8c-2,1.1-3.4,3.3-3.4,5.8v6.1
					c0,0.8,0.6,1.4,1.4,1.4h11.9c4.1,5.6,10.8,9.3,18.3,9.3c3.9,0,7.7-1,11.1-2.9l15.3,15.3c0.3,0.3,0.6,0.4,1,0.4
					c0.4,0,0.7-0.1,1-0.4l6.4-6.4C234.3,128,234.3,127.2,233.8,126.6z M222.2,92.1h1.5c0.9,0,1.6,0.7,1.6,1.6v3.9
					c0,0.9-0.7,1.6-1.6,1.6h-1.5c-0.2,0-0.4,0-0.6-0.1c-0.1-2.1-0.5-4.2-1.1-6.1C220.9,92.5,221.5,92.1,222.2,92.1z M221.6,101.9
					h2.5c2.1,0,3.8,1.7,3.8,3.8v4.8H219C220.4,107.9,221.3,104.9,221.6,101.9z M172.7,94.1c0-1.1,0.9-2,2-2h1.5c0.6,0,1,0.3,1.3,0.7
					c-0.7,2-1.1,4.1-1.1,6.4c-0.1,0-0.1,0-0.2,0h-1.5c-1.1,0-2-0.9-2-2V94.1L172.7,94.1z M170.2,110.5v-4.8c0-2.1,1.7-3.8,3.8-3.8
					h2.5c0.3,3.1,1.2,6,2.5,8.6H170.2z M226.4,132.1L211.3,117c-0.3-0.3-0.6-0.4-1-0.4c-0.3,0-0.5,0.1-0.7,0.2
					c-3.2,2-6.8,3.1-10.6,3.1c-11,0-19.9-8.9-19.9-19.9S188,80.1,199,80.1c11,0,19.9,8.9,19.9,19.9c0,3.9-1.1,7.6-3.2,10.9
					c-0.4,0.5-0.3,1.3,0.2,1.7l15,15L226.4,132.1z"/>
				<path class="st1" d="M199,83.5c-9.1,0-16.5,7.4-16.5,16.5c0,9.1,7.4,16.5,16.5,16.5c9.1,0,16.5-7.4,16.5-16.5
					C215.5,90.9,208.1,83.5,199,83.5z M199,113.7c-4.1,0-7.9-1.8-10.4-4.8c0.3-2.6,2.7-4,5.3-4.3l3.9,6.2c0.3,0.4,0.7,0.6,1.2,0.6
					c0.5,0,0.9-0.2,1.2-0.6l3.9-6.2c2.6,0.3,5,1.7,5.3,4.3C206.9,111.8,203.2,113.7,199,113.7z M199.5,101.7h-0.9
					c-2.2,0-3.2-1.9-3.2-3.7v-2.4c0-1.9,1-3.7,3.2-3.7h0.9c2.2,0,3.2,1.9,3.2,3.7V98C202.6,99.9,201.7,101.7,199.5,101.7z
					 M200.9,104.5l-1.9,3l-1.9-3H200.9z M204.3,101.8c0.7-1.1,1.1-2.4,1.1-3.8v-2.4c0-3.8-2.5-6.5-5.9-6.5h-0.9
					c-3.4,0-5.9,2.7-5.9,6.5V98c0,1.5,0.4,2.8,1.1,3.8c-3.2,0.4-5.7,1.9-7,4.2c-0.9-1.8-1.4-3.9-1.4-6.1c0-7.6,6.2-13.7,13.7-13.7
					c7.6,0,13.7,6.2,13.7,13.7c0,2.2-0.5,4.2-1.4,6.1C210.1,103.8,207.6,102.2,204.3,101.8z"/>
				<path class="st1" d="M199,74.2c0.8,0,1.4-0.6,1.4-1.4v-2.6c0-0.8-0.6-1.4-1.4-1.4c-0.8,0-1.4,0.6-1.4,1.4v2.6
					C197.6,73.6,198.3,74.2,199,74.2z"/>
				<path class="st1" d="M211.3,77.5c0.2,0.1,0.5,0.2,0.7,0.2c0.5,0,0.9-0.2,1.2-0.7l1.3-2.3c0.4-0.7,0.2-1.5-0.5-1.9
					c-0.7-0.4-1.5-0.2-1.9,0.5l-1.3,2.3C210.4,76.3,210.6,77.1,211.3,77.5z"/>
				<path class="st1" d="M184.9,77c0.3,0.4,0.7,0.7,1.2,0.7c0.2,0,0.5-0.1,0.7-0.2c0.7-0.4,0.9-1.2,0.5-1.9l-1.3-2.3
					c-0.4-0.7-1.2-0.9-1.9-0.5c-0.7,0.4-0.9,1.2-0.5,1.9L184.9,77z"/>
			</g>
		</g>
	</g>
	<g>
		<g>
			<g>
				<path class="st1" d="M118.4,79.9h-4.3c-0.7,0-1.2,0.5-1.2,1.2c0,0.7,0.5,1.2,1.2,1.2h4.3c0.7,0,1.2-0.5,1.2-1.2
					C119.6,80.5,119.1,79.9,118.4,79.9z"/>
			</g>
		</g>
		<g>
			<g>
				<path class="st1" d="M160.9,79.9h-4.3c-0.7,0-1.2,0.5-1.2,1.2c0,0.7,0.5,1.2,1.2,1.2h4.3c0.7,0,1.2-0.5,1.2-1.2
					C162.1,80.5,161.6,79.9,160.9,79.9z"/>
			</g>
		</g>
		<g>
			<g>
				<path class="st1" d="M123.3,95.6c-0.5-0.5-1.2-0.5-1.7,0l-3.1,3.2c-0.5,0.5-0.5,1.2,0,1.7c0.2,0.2,0.5,0.4,0.8,0.4
					c0.3,0,0.6-0.1,0.8-0.4l3.1-3.2C123.8,96.8,123.8,96,123.3,95.6z"/>
			</g>
		</g>
		<g>
			<g>
				<path class="st1" d="M154.4,64.1c-0.5-0.5-1.2-0.5-1.7,0l-3,3.1c-0.5,0.5-0.5,1.2,0,1.7c0.2,0.2,0.5,0.4,0.8,0.4
					c0.3,0,0.6-0.1,0.8-0.4l3-3.1C154.8,65.3,154.8,64.5,154.4,64.1z"/>
			</g>
		</g>
		<g>
			<g>
				<path class="st1" d="M125.4,67.1l-3-3.1c-0.5-0.5-1.2-0.5-1.7,0c-0.5,0.5-0.5,1.2,0,1.7l3,3.1c0.2,0.2,0.5,0.4,0.8,0.4
					c0.3,0,0.6-0.1,0.8-0.4C125.9,68.4,125.9,67.6,125.4,67.1z"/>
			</g>
		</g>
		<g>
			<g>
				<path class="st1" d="M156.5,98.7l-3.1-3.2c-0.5-0.5-1.2-0.5-1.7,0c-0.5,0.5-0.5,1.2,0,1.7l3.1,3.2c0.2,0.2,0.5,0.4,0.8,0.4
					c0.3,0,0.6-0.1,0.8-0.4C157,100,157,99.2,156.5,98.7z"/>
			</g>
		</g>
		<g>
			<g>
				<path class="st1" d="M137.5,67c-8.2,0-14.9,7.1-14.9,15.9c0,4.1,1.4,8.4,3.9,12c1.9,2.7,2.9,5.8,2.9,8.8v7.6
					c0,1.3,1.1,2.4,2.4,2.4h11.4c1.3,0,2.4-1.1,2.4-2.4v-7.6c0-3,1-6.1,2.9-8.8c2.5-3.6,3.9-7.9,3.9-12
					C152.5,74.1,145.8,67,137.5,67z M143.2,111.3h-11.4v-1.6h5.7c0.7,0,1.2-0.5,1.2-1.2c0-0.7-0.5-1.2-1.2-1.2h-5.7v-1.6h11.4V111.3
					L143.2,111.3z M135.9,88.7l-1.6-3.5h6.5l-1.6,3.5c-0.1,0.1-0.1,0.3-0.1,0.4l-0.9,14.1h-1.3L136,89.1
					C136,89,135.9,88.9,135.9,88.7z M146.6,93.5c-2.1,3-3.3,6.4-3.4,9.8h-2.7l0.9-13.7l2.3-5c0.2-0.4,0.1-0.8-0.1-1.2
					c-0.2-0.3-0.6-0.6-1-0.6h-10.3c-0.4,0-0.8,0.2-1,0.6c-0.2,0.4-0.2,0.8-0.1,1.2l2.3,5l0.9,13.7h-2.7c-0.1-3.4-1.2-6.8-3.4-9.8
					c-2.2-3.1-3.5-7.1-3.5-10.6c0-7.4,5.6-13.4,12.6-13.4c6.9,0,12.6,6,12.6,13.4C150.1,86.4,148.8,90.3,146.6,93.5z"/>
			</g>
		</g>
	</g>
	<g>
		<g id="Target">
			<g>
				<path class="st1" d="M135.8,30.6h-1.7c-0.8-11.2-9.8-20.2-21-21V7.9c0-0.9-0.7-1.6-1.6-1.6c-0.9,0-1.6,0.7-1.6,1.6v1.7
					c-11.2,0.8-20.2,9.8-21,21h-1.7c-0.9,0-1.6,0.7-1.6,1.6c0,0.9,0.7,1.6,1.6,1.6h1.7c0.8,11.2,9.8,20.2,21,21v1.7
					c0,0.9,0.7,1.6,1.6,1.6c0.9,0,1.6-0.7,1.6-1.6v-1.7c11.2-0.8,20.2-9.8,21-21h1.7c0.9,0,1.6-0.7,1.6-1.6
					C137.4,31.3,136.7,30.6,135.8,30.6z M127.7,33.8h3.2c-0.8,9.4-8.3,17-17.8,17.8v-3.2c0-0.9-0.7-1.6-1.6-1.6
					c-0.9,0-1.6,0.7-1.6,1.6v3.2c-9.4-0.8-17-8.3-17.8-17.8h3.2c0.9,0,1.6-0.7,1.6-1.6c0-0.9-0.7-1.6-1.6-1.6H92
					c0.8-9.4,8.3-17,17.8-17.8V16c0,0.9,0.7,1.6,1.6,1.6c0.9,0,1.6-0.7,1.6-1.6v-3.2c9.4,0.8,17,8.3,17.8,17.8h-3.2
					c-0.9,0-1.6,0.7-1.6,1.6C126,33.1,126.8,33.8,127.7,33.8z M116.3,32.2c0-2.7-2.2-4.9-4.9-4.9c-2.7,0-4.9,2.2-4.9,4.9
					c0,2.7,2.2,4.9,4.9,4.9C114.1,37.1,116.3,34.9,116.3,32.2z M109.8,32.2c0-0.9,0.7-1.6,1.6-1.6c0.9,0,1.6,0.7,1.6,1.6
					c0,0.9-0.7,1.6-1.6,1.6C110.5,33.8,109.8,33.1,109.8,32.2z M113.1,22.5c0-0.9-0.7-1.6-1.6-1.6c-6.3,0-11.4,5.1-11.4,11.4
					c0,0.9,0.7,1.6,1.6,1.6c0.9,0,1.6-0.7,1.6-1.6c0-4.5,3.6-8.1,8.1-8.1C112.3,24.1,113.1,23.4,113.1,22.5z M121.2,30.6
					c-0.9,0-1.6,0.7-1.6,1.6c0,4.5-3.6,8.1-8.1,8.1c-0.9,0-1.6,0.7-1.6,1.6c0,0.9,0.7,1.6,1.6,1.6c6.3,0,11.4-5.1,11.4-11.4
					C122.8,31.3,122.1,30.6,121.2,30.6z"/>
			</g>
		</g>
	</g>
	<g>
		<path class="st1" d="M86.4,48c-2.1-4.9-6.7-8.1-12-8.3c-0.2,0-0.4,0-0.5,0c-3.1,0-6.1,0.9-8.6,2.5c-2.5-1.6-5.5-2.5-8.6-2.5
			c-0.2,0-0.4,0-0.5,0c-5.3,0.2-9.9,3.3-12,8.3c-2.1,5-1.2,10.6,2.4,14.7c0,0,0.1,0.1,0.1,0.1l17.1,16.3c0.4,0.4,0.9,0.6,1.5,0.6
			c0.5,0,1.1-0.2,1.5-0.6l17.1-16.3c0,0,0.1-0.1,0.1-0.1C87.7,58.6,88.6,53,86.4,48z M80.9,59.7L65.3,74.6L49.7,59.7
			c-2.5-2.8-3.1-6.6-1.6-10.1c1.5-3.4,4.5-5.5,8.2-5.7c0.1,0,0.3,0,0.4,0c2.7,0,5.1,0.9,7.2,2.5c0.7,0.6,1.8,0.7,2.6,0.1
			c0,0,0.1-0.1,0.1-0.1c2.1-1.7,4.6-2.6,7.2-2.6c0.1,0,0.3,0,0.4,0c3.7,0.1,6.7,2.2,8.2,5.7C84,53.1,83.4,56.9,80.9,59.7z"/>
	</g>
	<g>
		<path class="st1" d="M96.2,118.4V95.4H61.9v42.8h15.8c1.1,0,2.1,0.9,2.1,2.1c0,1.1-0.9,2.1-2.1,2.1H59.9c-1.1,0-2.1-0.9-2.1-2.1
			V93.4c0-1.1,0.9-2.1,2.1-2.1h38.4c1.1,0,2.1,0.9,2.1,2.1v25c0,1.1-0.9,2.1-2.1,2.1C97.1,120.4,96.2,119.5,96.2,118.4z
			 M106.8,123.4c-0.9-0.8-2.2-0.7-2.9,0.2l-11.3,12.5l-5.6-5.4c-0.8-0.8-2.1-0.8-2.9,0.1c-0.8,0.8-0.8,2.1,0.1,2.9l7.2,6.9
			c0.4,0.4,0.9,0.6,1.4,0.6c0,0,0,0,0.1,0c0.5,0,1.1-0.3,1.4-0.7l12.7-14.1C107.7,125.4,107.6,124.1,106.8,123.4z M88.6,103.3H70.2
			c-1.1,0-2.1,0.9-2.1,2.1c0,1.1,0.9,2.1,2.1,2.1h18.5c1.1,0,2.1-0.9,2.1-2.1C90.7,104.2,89.8,103.3,88.6,103.3z M90.7,116.7
			c0-1.1-0.9-2.1-2.1-2.1H70.2c-1.1,0-2.1,0.9-2.1,2.1c0,1.1,0.9,2.1,2.1,2.1h18.5C89.8,118.7,90.7,117.8,90.7,116.7z M70.2,125.6
			c-1.1,0-2.1,0.9-2.1,2.1c0,1.1,0.9,2.1,2.1,2.1h5.5c1.1,0,2.1-0.9,2.1-2.1c0-1.1-0.9-2.1-2.1-2.1H70.2z"/>
	</g>
	<g>
		<g>
			<path class="st1" d="M198.3,214.1c-0.8-2.5-3-4.1-5.6-4.1h-10.8c-0.7,0-1.3-0.4-1.5-1.1l-3.4-10.4c-0.8-2.4-3-4-5.6-4
				c-2.6,0-4.8,1.6-5.6,4l-3.3,10.4c-0.2,0.6-0.8,1.1-1.5,1.1h-10.8c-2.6,0-4.8,1.6-5.6,4.1c-0.8,2.5,0,5,2.1,6.6l8.8,6.4
				c0.6,0.4,0.8,1.1,0.6,1.8l-3.4,10.3c-0.8,2.5,0,5,2.1,6.5c1,0.8,2.2,1.1,3.4,1.1c1.2,0,2.4-0.4,3.4-1.1l8.8-6.4
				c0.6-0.4,1.3-0.4,1.9,0l8.8,6.4c2.1,1.5,4.8,1.5,6.9,0c2.1-1.5,2.9-4.1,2.1-6.5l-2.3-7.1c-0.4-1.1-1.6-1.7-2.7-1.4
				c-1.1,0.4-1.7,1.6-1.4,2.7l2.3,7.1c0.3,1-0.4,1.6-0.6,1.8c-0.2,0.2-1,0.6-1.9,0l-8.8-6.4c-2.1-1.5-4.8-1.5-6.9,0l-8.8,6.4
				c-0.9,0.6-1.7,0.2-1.9,0c-0.2-0.2-0.9-0.8-0.6-1.8l3.3-10.3c0.8-2.4-0.1-5-2.1-6.5l-8.8-6.4c-0.9-0.6-0.7-1.6-0.6-1.8
				c0.1-0.3,0.4-1.1,1.5-1.1h10.8c2.5,0,4.8-1.6,5.6-4l3.3-10.4c0.3-1,1.3-1.1,1.5-1.1c0.3,0,1.2,0.1,1.5,1.1l3.4,10.4
				c0.8,2.4,3,4,5.6,4h10.8c1.1,0,1.4,0.9,1.5,1.1c0.1,0.3,0.3,1.2-0.6,1.8l-6,4.3c-0.9,0.7-1.2,2-0.5,3c0.7,0.9,2,1.2,3,0.5l6-4.3
				C198.3,219.1,199.1,216.6,198.3,214.1z"/>
		</g>
	</g>
	<g>
		<path class="st1" d="M221.7,147l2.9,4.7l-5.2,3.8l-3-4.8l-4.2,2.6l-2.6-4.2l4.2-2.6l2.6,4.2L221.7,147z M222,159.7l-2.6-4.2
			l-4.2,2.6l2.6,4.2L222,159.7z M246.2,150.6l-0.5,1c-0.8,4.6-3.7,7.7-5.8,9c-4.6,2.8-9.4,1.1-9.6,1.1c-3.1-0.7-5.9-0.3-8.1,1.1
			c-4.2,2.6-5.4,8-5.4,8l-0.3,1.3l16.7,27l-2.7,1.7l-29.8-48.1c-0.6,0.2-1.2,0-1.6-0.5c-0.4-0.6-0.2-1.4,0.4-1.8l2.2-1.4
			c0.6-0.4,1.4-0.2,1.8,0.4c0.3,0.5,0.2,1.1-0.2,1.6l0.8,1.3l0,0c1.7-4.2,4-7.2,6.6-8.8c4.8-3,9.2-0.5,9.3-0.4
			c3.7,2.2,6.4,1.5,8,0.5c0.7-0.4,1-0.8,1-0.8c3.7-3.2,5.2-6.9,5.8-8.3c0.7-1.3,1.8,1.2,1.8,1.2L246.2,150.6z M234.5,138l0.7,1.1
			l1.7-1.3l-1.3-2.1C235.2,136.2,235,137.2,234.5,138z M216.4,168.3l-0.8,0.5l0.4,0.6C216.1,169,216.2,168.7,216.4,168.3z
			 M230.1,160.5l-0.6-0.9l-0.6,0.8C229.3,160.4,229.7,160.4,230.1,160.5z M234.2,157.7l-2.3-3.7l4.6-3.3l-2.6-4.2l-4.6,3.3l-2.7-4.4
			c-0.5,0.1-1.1,0.2-1.8,0.2l-3,1.4l-1.7-2.7c-0.2-0.1-0.3-0.2-0.5-0.3c0,0-0.5-0.3-1.1-0.5l-4.7,2.9l-1.6-2.5
			c-0.3,0.1-0.5,0.3-0.8,0.4c-1.1,0.7-2.1,1.6-3,2.8l1.2,1.9l-3.7,2.3c-0.2,0.4-0.3,0.7-0.5,1.1l2.3,3.6l4.5-2.8l3,4.8l-4.5,2.8
			l2.6,4.2l4.5-2.8l1.1,1.8c0.7-0.9,1.6-1.7,2.7-2.3c0.4-0.3,0.9-0.5,1.3-0.7l-0.9-1.4l5.3-3.8l-2.6-4.3l4.7-1.9l2.6,4.2l-4.6,1.9
			l2.2,3.5L234.2,157.7z M244.5,150.1l-0.1-0.1l-1.6,1.5l-2.3-3.6l1.7-1.3l-2.8-4.5l-1.5,1.6l-2.8-4.5l-2.4,1.5
			c-0.4,0.6-0.9,1.1-1.4,1.7l2.6,4.2l4-2.9l2.6,4.2l-4,2.9l2.3,3.7l-4.5,3.5l1.9,3c1-0.2,2.1-0.6,3.1-1.2c0.7-0.4,1.3-0.9,1.9-1.5
			l-2.3-3.7l4-3l1.3,2.1L244.5,150.1z"/>
	</g>
	<g>
		<g id="Target_1_">
			<g>
				<path class="st1" d="M135.1,214.1h-1.7c-0.8-11.2-9.8-20.2-21-21v-1.7c0-0.9-0.7-1.6-1.6-1.6c-0.9,0-1.6,0.7-1.6,1.6v1.7
					c-11.2,0.8-20.2,9.8-21,21h-1.7c-0.9,0-1.6,0.7-1.6,1.6c0,0.9,0.7,1.6,1.6,1.6h1.7c0.8,11.2,9.8,20.2,21,21v1.7
					c0,0.9,0.7,1.6,1.6,1.6c0.9,0,1.6-0.7,1.6-1.6v-1.7c11.2-0.8,20.2-9.8,21-21h1.7c0.9,0,1.6-0.7,1.6-1.6
					C136.7,214.8,136,214.1,135.1,214.1z M126.9,217.4h3.2c-0.8,9.4-8.3,17-17.8,17.8V232c0-0.9-0.7-1.6-1.6-1.6
					c-0.9,0-1.6,0.7-1.6,1.6v3.2c-9.4-0.8-17-8.3-17.8-17.8h3.2c0.9,0,1.6-0.7,1.6-1.6c0-0.9-0.7-1.6-1.6-1.6h-3.2
					c0.8-9.4,8.3-17,17.8-17.8v3.2c0,0.9,0.7,1.6,1.6,1.6c0.9,0,1.6-0.7,1.6-1.6v-3.2c9.4,0.8,17,8.3,17.8,17.8h-3.2
					c-0.9,0-1.6,0.7-1.6,1.6C125.3,216.6,126,217.4,126.9,217.4z M115.6,215.7c0-2.7-2.2-4.9-4.9-4.9c-2.7,0-4.9,2.2-4.9,4.9
					c0,2.7,2.2,4.9,4.9,4.9C113.4,220.6,115.6,218.4,115.6,215.7z M109.1,215.7c0-0.9,0.7-1.6,1.6-1.6c0.9,0,1.6,0.7,1.6,1.6
					c0,0.9-0.7,1.6-1.6,1.6C109.8,217.4,109.1,216.6,109.1,215.7z M112.3,206c0-0.9-0.7-1.6-1.6-1.6c-6.3,0-11.4,5.1-11.4,11.4
					c0,0.9,0.7,1.6,1.6,1.6c0.9,0,1.6-0.7,1.6-1.6c0-4.5,3.6-8.1,8.1-8.1C111.6,207.6,112.3,206.9,112.3,206z M120.5,214.1
					c-0.9,0-1.6,0.7-1.6,1.6c0,4.5-3.6,8.1-8.1,8.1c-0.9,0-1.6,0.7-1.6,1.6c0,0.9,0.7,1.6,1.6,1.6c6.3,0,11.4-5.1,11.4-11.4
					C122.1,214.8,121.4,214.1,120.5,214.1z"/>
			</g>
		</g>
	</g>
	<g>
		<g>
			<g>
				<path class="st1" d="M85.3,181.7c-0.1-0.1-0.3-0.2-0.5-0.2c-0.2,0-0.4,0.1-0.5,0.2c-0.1,0.1-0.2,0.3-0.2,0.5
					c0,0.2,0.1,0.4,0.2,0.5c0.1,0.1,0.3,0.2,0.5,0.2c0.2,0,0.4-0.1,0.5-0.2c0.1-0.1,0.2-0.3,0.2-0.5
					C85.6,182.1,85.5,181.9,85.3,181.7z"/>
			</g>
		</g>
		<g>
			<g>
				<path class="st1" d="M108.9,168.6c-0.1-0.1-0.3-0.2-0.5-0.2c-0.2,0-0.4,0.1-0.5,0.2c-0.1,0.1-0.2,0.3-0.2,0.5
					c0,0.2,0.1,0.4,0.2,0.5c0.1,0.1,0.3,0.2,0.5,0.2c0.2,0,0.4-0.1,0.5-0.2c0.1-0.1,0.2-0.3,0.2-0.5
					C109.1,169,109,168.8,108.9,168.6z"/>
			</g>
		</g>
		<g>
			<g>
				<path class="st1" d="M101.5,156.3c-7,0-12.8,5.7-12.8,12.8c0,7,5.7,12.8,12.8,12.8c7,0,12.8-5.7,12.8-12.8
					C114.3,162.1,108.6,156.3,101.5,156.3z M101.5,157.8c3.5,0,6.6,1.6,8.6,4l-0.8,0.8c-0.3-0.1-0.6-0.2-1-0.2c-1.2,0-2.3,1-2.3,2.3
					c0,0.3,0.1,0.6,0.2,0.8l-4.4,3.9c-0.2-0.1-0.5-0.1-0.8-0.1c-0.5,0-1,0.2-1.4,0.5l-3.6-2.3c0-0.1,0-0.2,0-0.3
					c0-1.2-1-2.3-2.3-2.3c-1.2,0-2.3,1-2.3,2.3c0,0.2,0,0.4,0.1,0.6l-1.5,1C90.4,162.7,95.4,157.8,101.5,157.8z M109.1,164.7
					c0,0.4-0.3,0.8-0.8,0.8c-0.4,0-0.8-0.3-0.8-0.8c0-0.4,0.3-0.8,0.8-0.8C108.8,164,109.1,164.3,109.1,164.7z M93.2,176.7
					c-1.5-1.7-2.5-3.7-2.8-6.1l2.3-1.6c0.2,0.1,0.4,0.2,0.6,0.3V176.7z M93.9,168c-0.4,0-0.8-0.3-0.8-0.7c0-0.4,0.3-0.8,0.8-0.8
					c0.4,0,0.8,0.3,0.8,0.8C94.7,167.6,94.3,168,93.9,168z M100.4,180.3c-2.1-0.2-4.1-1-5.7-2.3v-8.7c0.3-0.1,0.6-0.3,0.8-0.5
					l3.5,2.3c0,0.2-0.1,0.3-0.1,0.5c0,1,0.6,1.8,1.5,2.1V180.3z M101.1,172.3c-0.4,0-0.8-0.3-0.8-0.8c0-0.4,0.3-0.7,0.8-0.7
					c0.4,0,0.8,0.3,0.8,0.7C101.9,172,101.5,172.3,101.1,172.3z M109.1,177.4v-5.2c0-0.4-0.3-0.8-0.8-0.8c-0.4,0-0.8,0.3-0.8,0.8
					v6.4c-1.7,1.1-3.6,1.7-5.7,1.8v-6.7c0.9-0.3,1.5-1.1,1.5-2.1c0-0.4-0.1-0.8-0.3-1.1l4.2-3.8c0.3,0.2,0.7,0.3,1.1,0.3
					c1.2,0,2.3-1,2.3-2.3c0-0.3-0.1-0.7-0.2-1l0.7-0.7c1.1,1.7,1.7,3.8,1.7,6C112.8,172.4,111.4,175.4,109.1,177.4z"/>
			</g>
		</g>
		<g>
			<g>
				<path class="st1" d="M118.1,156.1c0.3-0.3,0.3-0.8,0-1.1c-0.3-0.3-0.8-0.3-1.1,0L114,158c-0.2-0.2-0.4-0.5-0.7-0.7
					c-3.2-3.2-7.4-4.9-11.9-4.9c-4.5,0-8.7,1.7-11.9,4.9c-3.2,3.2-4.9,7.4-4.9,11.9c0,1.1,0.1,2.2,0.3,3.3l-5,3.4
					c-0.3,0.2-0.4,0.7-0.2,1c0.1,0.2,0.4,0.3,0.6,0.3c0.2,0,0.3,0,0.4-0.1l4.5-3.1c0.5,1.6,1.2,3.1,2.1,4.5l-1.3,1.3
					c-0.3,0.3-0.3,0.8,0,1.1c0.1,0.1,0.3,0.2,0.5,0.2c0.2,0,0.4-0.1,0.5-0.2l1.1-1.1c0.4,0.4,0.8,0.9,1.2,1.3
					c0.4,0.4,0.8,0.8,1.3,1.2l-6.7,6.7c-0.7,0.7-1.8,0.7-2.5,0c-0.7-0.7-0.7-1.8,0-2.5l1.4-1.4c0.3-0.3,0.3-0.8,0-1.1
					c-0.3-0.3-0.8-0.3-1.1,0l-1.4,1.4c-1.3,1.3-1.3,3.3,0,4.6c0.6,0.6,1.5,1,2.3,1c0.8,0,1.6-0.3,2.3-0.9l6.9-6.9
					c2.7,1.8,6,2.8,9.3,2.8c4.5,0,8.7-1.7,11.9-4.9c3.2-3.2,4.9-7.4,4.9-11.9c0-3.6-1.2-7.1-3.3-9.9L118.1,156.1z M116.8,169.1
					c0,8.4-6.8,15.3-15.3,15.3c-8.4,0-15.3-6.8-15.3-15.3c0-8.4,6.8-15.3,15.3-15.3C109.9,153.8,116.8,160.7,116.8,169.1z"/>
			</g>
		</g>
	</g>
	<g>
		<g>
			<g>
				<path class="st1" d="M271.3,253.2c-0.1-0.1-0.3-0.2-0.5-0.2c-0.2,0-0.4,0.1-0.5,0.2c-0.1,0.1-0.2,0.3-0.2,0.5
					c0,0.2,0.1,0.4,0.2,0.5c0.1,0.1,0.3,0.2,0.5,0.2c0.2,0,0.4-0.1,0.5-0.2c0.1-0.1,0.2-0.3,0.2-0.5
					C271.5,253.5,271.4,253.4,271.3,253.2z"/>
			</g>
		</g>
		<g>
			<g>
				<path class="st1" d="M294.8,240.1c-0.1-0.1-0.3-0.2-0.5-0.2c-0.2,0-0.4,0.1-0.5,0.2c-0.1,0.1-0.2,0.3-0.2,0.5
					c0,0.2,0.1,0.4,0.2,0.5c0.1,0.1,0.3,0.2,0.5,0.2c0.2,0,0.4-0.1,0.5-0.2c0.1-0.1,0.2-0.3,0.2-0.5
					C295,240.5,294.9,240.3,294.8,240.1z"/>
			</g>
		</g>
		<g>
			<g>
				<path class="st1" d="M287.4,227.8c-7,0-12.8,5.7-12.8,12.8c0,7,5.7,12.8,12.8,12.8c7.1,0,12.8-5.7,12.8-12.8
					C300.2,233.5,294.5,227.8,287.4,227.8z M287.4,229.3c3.5,0,6.6,1.6,8.7,4l-0.8,0.8c-0.3-0.1-0.6-0.2-1-0.2c-1.2,0-2.3,1-2.3,2.3
					c0,0.3,0.1,0.6,0.2,0.8l-4.4,3.9c-0.2-0.1-0.5-0.1-0.8-0.1c-0.5,0-1,0.2-1.4,0.5l-3.6-2.3c0-0.1,0-0.2,0-0.3
					c0-1.2-1-2.3-2.3-2.3c-1.2,0-2.3,1-2.3,2.3c0,0.2,0,0.4,0.1,0.6l-1.5,1C276.3,234.2,281.3,229.3,287.4,229.3z M295,236.2
					c0,0.4-0.3,0.8-0.7,0.8c-0.4,0-0.8-0.3-0.8-0.8c0-0.4,0.3-0.8,0.8-0.8C294.7,235.5,295,235.8,295,236.2z M279.1,248.1
					c-1.5-1.7-2.5-3.7-2.8-6.1l2.3-1.6c0.2,0.1,0.4,0.2,0.6,0.3V248.1z M279.8,239.4c-0.4,0-0.8-0.3-0.8-0.7s0.3-0.8,0.8-0.8
					c0.4,0,0.8,0.3,0.8,0.8S280.2,239.4,279.8,239.4z M286.3,251.8c-2.1-0.2-4.1-1-5.7-2.3v-8.7c0.3-0.1,0.6-0.3,0.8-0.5l3.5,2.3
					c0,0.2-0.1,0.3-0.1,0.5c0,1,0.6,1.8,1.5,2.1V251.8z M287,243.8c-0.4,0-0.7-0.3-0.7-0.8c0-0.4,0.3-0.7,0.7-0.7
					c0.4,0,0.8,0.3,0.8,0.7C287.8,243.5,287.5,243.8,287,243.8z M295,248.9v-5.2c0-0.4-0.3-0.8-0.8-0.8c-0.4,0-0.7,0.3-0.7,0.8v6.4
					c-1.7,1.1-3.6,1.7-5.7,1.8v-6.7c0.9-0.3,1.5-1.1,1.5-2.1c0-0.4-0.1-0.8-0.3-1.1l4.2-3.7c0.3,0.2,0.7,0.3,1.1,0.3
					c1.2,0,2.3-1,2.3-2.3c0-0.3-0.1-0.7-0.2-1l0.7-0.7c1.1,1.7,1.7,3.8,1.7,6C298.7,243.9,297.3,246.9,295,248.9z"/>
			</g>
		</g>
		<g>
			<g>
				<path class="st1" d="M304,227.6c0.3-0.3,0.3-0.8,0-1.1c-0.3-0.3-0.8-0.3-1.1,0l-2.9,2.9c-0.2-0.2-0.5-0.5-0.7-0.7
					c-3.2-3.2-7.4-4.9-11.9-4.9c-4.5,0-8.7,1.7-11.9,4.9c-3.2,3.2-4.9,7.4-4.9,11.9c0,1.1,0.1,2.2,0.3,3.3l-5,3.4
					c-0.3,0.2-0.4,0.7-0.2,1c0.1,0.2,0.4,0.3,0.6,0.3c0.1,0,0.3,0,0.4-0.1l4.5-3.1c0.5,1.6,1.2,3.1,2.1,4.5l-1.3,1.3
					c-0.3,0.3-0.3,0.8,0,1.1c0.1,0.2,0.3,0.2,0.5,0.2c0.2,0,0.4-0.1,0.5-0.2l1.1-1.1c0.4,0.4,0.8,0.9,1.2,1.3
					c0.4,0.4,0.8,0.8,1.3,1.2l-6.7,6.7c-0.7,0.7-1.8,0.7-2.5,0c-0.7-0.7-0.7-1.8,0-2.4l1.4-1.4c0.3-0.3,0.3-0.8,0-1.1
					c-0.3-0.3-0.8-0.3-1.1,0l-1.4,1.4c-1.3,1.3-1.3,3.3,0,4.6c0.6,0.6,1.5,1,2.3,1c0.8,0,1.6-0.3,2.3-0.9l6.9-6.9
					c2.7,1.8,6,2.8,9.3,2.8c4.5,0,8.7-1.7,11.9-4.9c3.2-3.2,4.9-7.4,4.9-11.9c0-3.6-1.1-7.1-3.3-10L304,227.6z M302.7,240.6
					c0,8.4-6.8,15.3-15.3,15.3c-8.4,0-15.3-6.8-15.3-15.3c0-8.4,6.8-15.3,15.3-15.3C295.8,225.3,302.7,232.2,302.7,240.6z"/>
			</g>
		</g>
	</g>
	<g>
		<path class="st1" d="M85.9,240.7c-2.1-4.9-6.7-8.1-12-8.3c-0.2,0-0.4,0-0.5,0c-3.1,0-6.1,0.9-8.6,2.5c-2.5-1.6-5.5-2.5-8.6-2.5
			c-0.2,0-0.4,0-0.5,0c-5.3,0.2-9.9,3.3-12,8.3c-2.1,5-1.2,10.6,2.4,14.7c0,0,0.1,0.1,0.1,0.1l17.1,16.3c0.4,0.4,0.9,0.6,1.5,0.6
			c0.5,0,1.1-0.2,1.5-0.6l17.1-16.3c0,0,0.1-0.1,0.1-0.1C87.1,251.3,88,245.7,85.9,240.7z M80.4,252.5l-15.6,14.9l-15.6-14.9
			c-2.5-2.8-3.1-6.6-1.6-10.1c1.5-3.4,4.5-5.5,8.2-5.7c0.1,0,0.3,0,0.4,0c2.7,0,5.2,0.9,7.2,2.5c0.7,0.6,1.8,0.7,2.6,0.1
			c0,0,0.1-0.1,0.1-0.1c2.1-1.7,4.6-2.6,7.2-2.6c0.1,0,0.3,0,0.4,0c3.7,0.1,6.7,2.2,8.2,5.7C83.5,245.8,82.8,249.7,80.4,252.5z"/>
	</g>
	<g>
		<path class="st1" d="M26.3,210.3l2.9,4.7l-5.2,3.8l-3-4.8l-4.2,2.6l-2.6-4.2l4.2-2.6L21,214L26.3,210.3z M26.6,223l-2.6-4.2
			l-4.2,2.6l2.6,4.2L26.6,223z M50.8,213.9l-0.5,1c-0.8,4.6-3.7,7.7-5.8,9c-4.6,2.8-9.4,1.1-9.6,1.1c-3.1-0.7-5.9-0.3-8.1,1.1
			c-4.2,2.6-5.4,8-5.4,8l-0.3,1.3l16.7,27l-2.7,1.7L5.3,216c-0.6,0.2-1.2,0-1.6-0.5c-0.4-0.6-0.2-1.4,0.4-1.8l2.2-1.4
			c0.6-0.4,1.4-0.2,1.8,0.4c0.3,0.5,0.2,1.1-0.2,1.6l0.8,1.3l0,0c1.7-4.2,4-7.2,6.6-8.8c4.8-3,9.2-0.5,9.3-0.4
			c3.7,2.2,6.4,1.5,8,0.5c0.7-0.4,1-0.8,1-0.8c3.7-3.2,5.2-6.9,5.8-8.3c0.7-1.3,1.8,1.2,1.8,1.2L50.8,213.9z M39.1,201.3l0.7,1.1
			l1.7-1.3l-1.3-2.1C39.8,199.5,39.6,200.5,39.1,201.3z M21,231.6l-0.8,0.5l0.4,0.6C20.7,232.3,20.8,232,21,231.6z M34.7,223.8
			l-0.6-0.9l-0.6,0.8C33.9,223.7,34.3,223.7,34.7,223.8z M38.8,221l-2.3-3.7l4.6-3.3l-2.6-4.2l-4.6,3.3l-2.7-4.4
			c-0.5,0.1-1.2,0.2-1.8,0.2l-3,1.4l-1.7-2.7c-0.2-0.1-0.3-0.2-0.5-0.3c-0.1,0-0.5-0.3-1.1-0.5l-4.7,2.9l-1.6-2.5
			c-0.3,0.1-0.5,0.3-0.8,0.5c-1.1,0.7-2.1,1.6-3,2.8l1.2,1.9l-3.7,2.3c-0.2,0.4-0.3,0.7-0.5,1.1l2.3,3.6l4.5-2.8l3,4.8l-4.5,2.8
			l2.6,4.2l4.5-2.8l1.1,1.8c0.7-0.9,1.6-1.7,2.7-2.3c0.4-0.3,0.9-0.5,1.3-0.7l-0.9-1.4l5.3-3.8l-2.6-4.3l4.7-1.9l2.6,4.2l-4.6,1.9
			l2.2,3.5L38.8,221z M49.1,213.4l-0.1-0.1l-1.6,1.5l-2.3-3.6l1.7-1.3l-2.8-4.5l-1.5,1.6l-2.8-4.5l-2.4,1.5
			c-0.4,0.6-0.9,1.1-1.4,1.7l2.6,4.2l4-2.9l2.6,4.2l-4,2.9l2.3,3.7l-4.5,3.5l1.9,3c1-0.2,2.1-0.6,3.1-1.2c0.7-0.4,1.3-0.9,1.9-1.5
			l-2.3-3.7l4-3l1.3,2.1L49.1,213.4z"/>
	</g>
	<g>
		<g>
			<g>
				<path class="st1" d="M86.7,271.1h-4.3c-0.7,0-1.2,0.5-1.2,1.2c0,0.7,0.5,1.2,1.2,1.2h4.3c0.7,0,1.2-0.5,1.2-1.2
					C87.9,271.7,87.4,271.1,86.7,271.1z"/>
			</g>
		</g>
		<g>
			<g>
				<path class="st1" d="M129,271.1h-4.3c-0.7,0-1.2,0.5-1.2,1.2c0,0.7,0.5,1.2,1.2,1.2h4.3c0.7,0,1.2-0.5,1.2-1.2
					C130.1,271.7,129.6,271.1,129,271.1z"/>
			</g>
		</g>
		<g>
			<g>
				<path class="st1" d="M91.6,286.7c-0.5-0.5-1.2-0.5-1.7,0l-3.1,3.1c-0.5,0.5-0.5,1.2,0,1.7c0.2,0.2,0.5,0.4,0.8,0.4
					c0.3,0,0.6-0.1,0.8-0.4l3.1-3.1C92.1,287.9,92.1,287.1,91.6,286.7z"/>
			</g>
		</g>
		<g>
			<g>
				<path class="st1" d="M122.4,255.4c-0.5-0.5-1.2-0.5-1.7,0l-3,3.1c-0.5,0.5-0.5,1.2,0,1.7c0.2,0.2,0.5,0.4,0.8,0.4
					c0.3,0,0.6-0.1,0.8-0.4l3-3.1C122.9,256.6,122.9,255.8,122.4,255.4z"/>
			</g>
		</g>
		<g>
			<g>
				<path class="st1" d="M93.7,258.4l-3-3.1c-0.5-0.5-1.2-0.5-1.7,0c-0.5,0.5-0.5,1.2,0,1.7l3,3.1c0.2,0.2,0.5,0.4,0.8,0.4
					c0.3,0,0.6-0.1,0.8-0.4C94.1,259.7,94.1,258.9,93.7,258.4z"/>
			</g>
		</g>
		<g>
			<g>
				<path class="st1" d="M124.6,289.8l-3.1-3.1c-0.5-0.5-1.2-0.5-1.7,0c-0.5,0.5-0.5,1.2,0,1.7l3.1,3.1c0.2,0.2,0.5,0.4,0.8,0.4
					c0.3,0,0.6-0.1,0.8-0.4C125.1,291,125.1,290.3,124.6,289.8z"/>
			</g>
		</g>
		<g>
			<g>
				<path class="st1" d="M105.7,258.3c-8.2,0-14.8,7.1-14.8,15.8c0,4,1.4,8.4,3.9,11.9c1.9,2.7,2.9,5.8,2.9,8.8v7.6
					c0,1.3,1.1,2.4,2.4,2.4h11.3c1.3,0,2.4-1.1,2.4-2.4v-7.6c0-3,1-6,2.9-8.8c2.5-3.5,3.9-7.9,3.9-11.9
					C120.6,265.4,113.9,258.3,105.7,258.3z M111.4,302.3h-11.3v-1.6h5.6c0.7,0,1.2-0.5,1.2-1.2c0-0.7-0.5-1.2-1.2-1.2h-5.6v-1.6
					h11.3V302.3L111.4,302.3z M104,279.9l-1.6-3.4h6.5l-1.6,3.4c-0.1,0.1-0.1,0.3-0.1,0.4l-0.9,14h-1.3l-0.9-14
					C104.1,280.1,104.1,280,104,279.9z M114.7,284.6c-2.1,3-3.3,6.4-3.4,9.8h-2.6l0.9-13.7l2.3-4.9c0.2-0.4,0.1-0.8-0.1-1.2
					c-0.2-0.3-0.6-0.6-1-0.6h-10.2c-0.4,0-0.8,0.2-1,0.6c-0.2,0.3-0.2,0.8-0.1,1.2l2.3,4.9l0.9,13.7h-2.6c-0.1-3.4-1.2-6.7-3.4-9.8
					c-2.2-3.1-3.5-7-3.5-10.5c0-7.4,5.6-13.4,12.5-13.4c6.9,0,12.5,6,12.5,13.4C118.2,277.5,116.9,281.5,114.7,284.6z"/>
			</g>
		</g>
	</g>
	<g>
		<g>
			<g>
				<path class="st1" d="M285.8,268.4c-10.6,0-19.2,8.6-19.2,19.2c0,10.6,8.6,19.2,19.2,19.2c10.6,0,19.2-8.6,19.2-19.2
					C305,277,296.4,268.4,285.8,268.4z M285.8,303.9c-9,0-16.2-7.3-16.2-16.2c0-9,7.3-16.2,16.2-16.2c9,0,16.2,7.3,16.2,16.2
					C302,296.6,294.7,303.9,285.8,303.9z"/>
			</g>
		</g>
		<g>
			<g>
				<path class="st1" d="M285.8,278.1c-0.8,0-1.5,0.7-1.5,1.5v9.7c0,0.8,0.7,1.5,1.5,1.5c0.8,0,1.5-0.7,1.5-1.5v-9.7
					C287.3,278.8,286.6,278.1,285.8,278.1z"/>
			</g>
		</g>
		<g>
			<g>
				<path class="st1" d="M285.8,292.6c1.1,0,2,0.9,2,2c0,1.1-0.9,2-2,2c-1.1,0-2-0.9-2-2C283.7,293.5,284.6,292.6,285.8,292.6z"/>
			</g>
		</g>
	</g>
	<g>
		<g>
			<g>
				<path class="st1" d="M194.1,299.5L182.6,288h7.5c0.7,0,1.2-0.5,1.2-1.2v-5.3c0-2.1-1.2-3.9-2.9-4.9c0.4-0.6,0.7-1.3,0.7-2.1
					v-3.3c0-2.1-1.7-3.7-3.7-3.7h-1.3c-0.9,0-1.7,0.3-2.4,0.8c-3.1-6.6-9.8-11.1-17.6-11.1c-7.7,0-14.4,4.5-17.5,11
					c-0.6-0.4-1.3-0.6-2.1-0.6h-1.3c-2.2,0-4,1.8-4,4.1v2.7c0,0.9,0.3,1.7,0.8,2.4c-1.8,1-3,2.8-3,5v5.3c0,0.7,0.5,1.2,1.2,1.2h10.2
					c3.5,4.9,9.3,8,15.7,8c3.4,0,6.7-0.9,9.6-2.5l13.2,13.2c0.2,0.2,0.5,0.3,0.8,0.3c0.3,0,0.6-0.1,0.8-0.3l5.5-5.5
					C194.6,300.7,194.6,300,194.1,299.5z M184.1,269.8h1.3c0.8,0,1.4,0.6,1.4,1.4v3.3c0,0.8-0.6,1.4-1.4,1.4h-1.3
					c-0.2,0-0.3,0-0.5-0.1c-0.1-1.8-0.4-3.6-0.9-5.3C183,270.1,183.5,269.8,184.1,269.8z M183.6,278.2h2.1c1.8,0,3.3,1.5,3.3,3.3
					v4.1h-7.6C182.6,283.3,183.4,280.8,183.6,278.2z M141.6,271.5c0-0.9,0.8-1.7,1.7-1.7h1.3c0.5,0,0.9,0.2,1.1,0.6
					c-0.6,1.7-0.9,3.6-1,5.5c-0.1,0-0.1,0-0.2,0h-1.3c-0.9,0-1.7-0.8-1.7-1.7V271.5L141.6,271.5z M139.4,285.6v-4.1
					c0-1.8,1.5-3.3,3.3-3.3h2.1c0.2,2.7,1,5.2,2.2,7.4H139.4z M187.8,304.2l-13-13c-0.2-0.2-0.5-0.3-0.8-0.3c-0.2,0-0.4,0.1-0.6,0.2
					c-2.7,1.7-5.9,2.6-9.1,2.6c-9.4,0-17.1-7.7-17.1-17.1c0-9.4,7.7-17.1,17.1-17.1c9.4,0,17.1,7.7,17.1,17.1c0,3.3-1,6.6-2.8,9.4
					c-0.3,0.5-0.2,1.1,0.2,1.5l13,13L187.8,304.2z"/>
				<path class="st1" d="M164.2,262.4c-7.8,0-14.2,6.4-14.2,14.2c0,7.8,6.4,14.2,14.2,14.2c7.8,0,14.2-6.4,14.2-14.2
					C178.3,268.7,172,262.4,164.2,262.4z M164.2,288.3c-3.6,0-6.8-1.6-8.9-4.1c0.3-2.2,2.3-3.4,4.6-3.7l3.4,5.3
					c0.2,0.3,0.6,0.5,1,0.5c0.4,0,0.8-0.2,1-0.5l3.4-5.3c2.3,0.3,4.3,1.5,4.6,3.7C170.9,286.7,167.7,288.3,164.2,288.3z
					 M164.6,278.1h-0.8c-1.9,0-2.7-1.6-2.7-3.2v-2.1c0-1.6,0.9-3.2,2.7-3.2h0.8c1.9,0,2.7,1.6,2.7,3.2v2.1
					C167.3,276.4,166.4,278.1,164.6,278.1z M165.8,280.4l-1.6,2.5l-1.6-2.5H165.8z M168.8,278.2c0.6-0.9,0.9-2,0.9-3.3v-2.1
					c0-3.2-2.1-5.6-5.1-5.6h-0.8c-3,0-5.1,2.3-5.1,5.6v2.1c0,1.3,0.3,2.4,0.9,3.3c-2.8,0.3-4.9,1.7-6,3.6c-0.8-1.6-1.2-3.4-1.2-5.2
					c0-6.5,5.3-11.8,11.8-11.8c6.5,0,11.8,5.3,11.8,11.8c0,1.9-0.4,3.7-1.2,5.2C173.7,279.8,171.5,278.5,168.8,278.2z"/>
				<path class="st1" d="M164.2,254.3c0.7,0,1.2-0.5,1.2-1.2v-2.2c0-0.7-0.5-1.2-1.2-1.2c-0.6,0-1.2,0.5-1.2,1.2v2.2
					C163,253.8,163.5,254.3,164.2,254.3z"/>
				<path class="st1" d="M174.7,257.2c0.2,0.1,0.4,0.2,0.6,0.2c0.4,0,0.8-0.2,1-0.6l1.1-1.9c0.3-0.6,0.1-1.3-0.4-1.6
					c-0.6-0.3-1.3-0.1-1.6,0.4l-1.1,1.9C174,256.1,174.2,256.9,174.7,257.2z"/>
				<path class="st1" d="M152,256.7c0.2,0.4,0.6,0.6,1,0.6c0.2,0,0.4,0,0.6-0.2c0.6-0.3,0.8-1,0.4-1.6l-1.1-1.9
					c-0.3-0.6-1-0.8-1.6-0.4c-0.6,0.3-0.8,1.1-0.4,1.6L152,256.7z"/>
			</g>
		</g>
	</g>
	<g>
		<g>
			<g>
				<path class="st1" d="M254.2,204.7c-5.2,0-9.9,2.3-13,5.9c-4-3.7-9.4-5.9-15.3-5.9c-12.5,0-22.7,10.2-22.7,22.7
					c0,5,1.6,9.7,4.6,13.7c0,0,0,0,0,0c3.6,4.4,5.5,9.5,5.4,14.2c0,0.5,0.3,1,0.8,1.2c0.2,0.1,0.4,0.1,0.6,0.1
					c0.3,0,0.6-0.1,0.9-0.3c2.4-2.1,4.5-4.3,6.2-6.7c1.4,0.3,2.8,0.4,4.2,0.4c8.9,0,16.6-5.1,20.3-12.6c0.5,0.2,0.9,0.5,1.4,0.6
					c1.7,2.7,4,5.2,6.5,7.4c0.2,0.2,0.6,0.3,0.9,0.3c0.2,0,0.4,0,0.6-0.1c0.5-0.2,0.8-0.8,0.7-1.3c-0.1-1.7,0.1-3.4,0.6-5.2
					c3.9-0.6,7.5-2.5,10.2-5.5c2.9-3.2,4.5-7.3,4.5-11.7C271.6,212.4,263.8,204.7,254.2,204.7z M225.9,247.4c-0.8,0-1.7-0.1-2.5-0.2
					c0.9-1.5,1.7-3,2.4-4.6c0.3-0.7,0-1.5-0.7-1.7c-0.7-0.3-1.5,0-1.7,0.7c-1.5,3.7-4.1,7.4-7.5,10.8c-0.6-4.4-2.6-9-5.8-13
					c-2.7-3.5-4.1-7.7-4.1-12.1c0-11,9-20,20-20c11,0,20,9,20,20C245.9,238.4,236.9,247.4,225.9,247.4z M258,236.2
					c0.3-0.7,0.7-1.3,1.1-2c0.4-0.6,0.2-1.5-0.4-1.8c-0.6-0.4-1.4-0.2-1.8,0.4c-0.9,1.5-1.7,3-2.2,4.6c0,0.1,0,0.1-0.1,0.2
					c-0.4,1.3-0.7,2.5-0.9,3.8c-1.5-1.6-2.9-3.3-4.1-5.1c-0.2-0.2-0.4-0.4-0.7-0.5c-0.6-0.2-1.2-0.5-1.7-0.8c0.4-1.2,0.7-2.4,1-3.6
					h5.7c0.7,0,1.3-0.6,1.3-1.3c0-0.7-0.6-1.3-1.3-1.3h-5.4c0-0.4,0-0.9,0-1.3c0-0.5,0-0.9,0-1.3h15.7c0.7,0,1.3-0.6,1.3-1.3
					c0-0.7-0.6-1.3-1.3-1.3h-16c-0.2-0.9-0.4-1.8-0.7-2.7h16.6c0.7,0,1.3-0.6,1.3-1.3c0-0.7-0.6-1.3-1.3-1.3h-17.6
					c-0.9-2-2.1-3.9-3.5-5.5c2.7-3.2,6.7-5.2,11.2-5.2c8.1,0,14.7,6.6,14.7,14.7C268.9,228.8,264.3,234.5,258,236.2z"/>
			</g>
		</g>
		<g>
			<g>
				<path class="st1" d="M260.7,212.7h-13.4c-0.7,0-1.3,0.6-1.3,1.3c0,0.7,0.6,1.3,1.3,1.3h13.4c0.7,0,1.3-0.6,1.3-1.3
					C262,213.3,261.4,212.7,260.7,212.7z"/>
			</g>
		</g>
		<g>
			<g>
				<path class="st1" d="M231,218h-14.7c-0.7,0-1.3,0.6-1.3,1.3c0,0.7,0.6,1.3,1.3,1.3H231c0.7,0,1.3-0.6,1.3-1.3
					C232.4,218.6,231.8,218,231,218z"/>
			</g>
		</g>
		<g>
			<g>
				<path class="st1" d="M235.9,223.3h-20c-0.7,0-1.3,0.6-1.3,1.3c0,0.7,0.6,1.3,1.3,1.3h20c0.7,0,1.3-0.6,1.3-1.3
					C237.2,223.9,236.6,223.3,235.9,223.3z"/>
			</g>
		</g>
		<g>
			<g>
				<path class="st1" d="M235.9,228.7h-20c-0.7,0-1.3,0.6-1.3,1.3c0,0.7,0.6,1.3,1.3,1.3h20c0.7,0,1.3-0.6,1.3-1.3
					C237.2,229.3,236.6,228.7,235.9,228.7z"/>
			</g>
		</g>
		<g>
			<g>
				<path class="st1" d="M230.6,234h-14.7c-0.7,0-1.3,0.6-1.3,1.3c0,0.7,0.6,1.3,1.3,1.3h14.7c0.7,0,1.3-0.6,1.3-1.3
					C231.9,234.6,231.3,234,230.6,234z"/>
			</g>
		</g>
		<g>
			<g>
				<path class="st1" d="M235.9,234c-0.7,0-1.3,0.6-1.3,1.3c0,0.7,0.6,1.3,1.3,1.3c0.7,0,1.3-0.6,1.3-1.3
					C237.2,234.6,236.6,234,235.9,234z"/>
			</g>
		</g>
	</g>
	<g>
		<g>
			<g>
				<path class="st1" d="M44.4,270.6c-3.6,0-6.8,1.6-9.1,4.1c-2.8-2.6-6.5-4.1-10.6-4.1c-8.7,0-15.8,7.1-15.8,15.8
					c0,3.5,1.1,6.8,3.2,9.5c0,0,0,0,0,0c2.5,3.1,3.8,6.6,3.8,9.9c0,0.4,0.2,0.7,0.5,0.9c0.1,0.1,0.3,0.1,0.4,0.1
					c0.2,0,0.4-0.1,0.6-0.2c1.7-1.4,3.1-3,4.3-4.6c1,0.2,1.9,0.3,2.9,0.3c6.2,0,11.5-3.6,14.1-8.8c0.3,0.2,0.6,0.3,1,0.4
					c1.2,1.9,2.8,3.6,4.5,5.1c0.2,0.1,0.4,0.2,0.6,0.2c0.1,0,0.3,0,0.4-0.1c0.3-0.2,0.5-0.5,0.5-0.9c-0.1-1.2,0-2.4,0.4-3.6
					c2.7-0.4,5.2-1.8,7.1-3.8c2-2.2,3.1-5.1,3.1-8.1C56.5,276,51.1,270.6,44.4,270.6z M24.8,300.3c-0.6,0-1.2,0-1.7-0.1
					c0.7-1,1.2-2.1,1.7-3.2c0.2-0.5,0-1-0.5-1.2c-0.5-0.2-1,0-1.2,0.5c-1.1,2.6-2.9,5.2-5.2,7.5c-0.4-3.1-1.8-6.2-4-9
					c-1.9-2.4-2.8-5.3-2.8-8.4c0-7.7,6.2-13.9,13.9-13.9c7.7,0,13.9,6.2,13.9,13.9C38.7,294,32.5,300.3,24.8,300.3z M47.1,292.5
					c0.2-0.5,0.5-0.9,0.8-1.4c0.3-0.4,0.1-1-0.3-1.3c-0.4-0.3-1-0.1-1.3,0.3c-0.7,1-1.2,2.1-1.5,3.2c0,0,0,0.1,0,0.1
					c-0.3,0.9-0.5,1.8-0.6,2.6c-1.1-1.1-2-2.3-2.8-3.6c-0.1-0.2-0.3-0.3-0.5-0.4c-0.4-0.2-0.8-0.3-1.2-0.5c0.3-0.8,0.5-1.6,0.7-2.5
					h4c0.5,0,0.9-0.4,0.9-0.9c0-0.5-0.4-0.9-0.9-0.9h-3.7c0-0.3,0-0.6,0-0.9c0-0.3,0-0.6,0-0.9h10.9c0.5,0,0.9-0.4,0.9-0.9
					c0-0.5-0.4-0.9-0.9-0.9H40.3c-0.1-0.6-0.3-1.3-0.5-1.9h11.5c0.5,0,0.9-0.4,0.9-0.9c0-0.5-0.4-0.9-0.9-0.9H39.1
					c-0.6-1.4-1.5-2.7-2.5-3.8c1.9-2.2,4.7-3.6,7.8-3.6c5.6,0,10.2,4.6,10.2,10.2C54.6,287.3,51.5,291.3,47.1,292.5z"/>
			</g>
		</g>
		<g>
			<g>
				<path class="st1" d="M48.9,276.2h-9.3c-0.5,0-0.9,0.4-0.9,0.9c0,0.5,0.4,0.9,0.9,0.9h9.3c0.5,0,0.9-0.4,0.9-0.9
					C49.9,276.6,49.4,276.2,48.9,276.2z"/>
			</g>
		</g>
		<g>
			<g>
				<path class="st1" d="M28.4,279.9H18.2c-0.5,0-0.9,0.4-0.9,0.9c0,0.5,0.4,0.9,0.9,0.9h10.2c0.5,0,0.9-0.4,0.9-0.9
					C29.3,280.3,28.9,279.9,28.4,279.9z"/>
			</g>
		</g>
		<g>
			<g>
				<path class="st1" d="M31.7,283.6H17.8c-0.5,0-0.9,0.4-0.9,0.9c0,0.5,0.4,0.9,0.9,0.9h13.9c0.5,0,0.9-0.4,0.9-0.9
					C32.7,284,32.3,283.6,31.7,283.6z"/>
			</g>
		</g>
		<g>
			<g>
				<path class="st1" d="M31.7,287.3H17.8c-0.5,0-0.9,0.4-0.9,0.9c0,0.5,0.4,0.9,0.9,0.9h13.9c0.5,0,0.9-0.4,0.9-0.9
					C32.7,287.7,32.3,287.3,31.7,287.3z"/>
			</g>
		</g>
		<g>
			<g>
				<path class="st1" d="M28,291H17.8c-0.5,0-0.9,0.4-0.9,0.9c0,0.5,0.4,0.9,0.9,0.9H28c0.5,0,0.9-0.4,0.9-0.9
					C29,291.4,28.5,291,28,291z"/>
			</g>
		</g>
		<g>
			<g>
				<path class="st1" d="M31.7,291c-0.5,0-0.9,0.4-0.9,0.9c0,0.5,0.4,0.9,0.9,0.9c0.5,0,0.9-0.4,0.9-0.9
					C32.7,291.4,32.2,291,31.7,291z"/>
			</g>
		</g>
	</g>
	<g>
		<path class="st1" d="M251.9,272.3c-1.4-1.4-3.1-2.1-5-2.1h-21.4v-1c0-2-0.7-3.6-2.1-5c-1.4-1.4-3.1-2.1-5-2.1h-10.2
			c-2,0-3.6,0.7-5,2.1c-1.4,1.4-2.1,3.1-2.1,5v30.5c0,2,0.7,3.6,2.1,5c1.4,1.4,3.1,2.1,5,2.1h38.7c2,0,3.6-0.7,5-2.1
			c1.4-1.4,2.1-3.1,2.1-5v-22.4C254,275.4,253.3,273.7,251.9,272.3z M249.9,299.8c0,0.8-0.3,1.6-0.9,2.2c-0.6,0.6-1.3,0.9-2.2,0.9
			h-38.7c-0.8,0-1.6-0.3-2.2-0.9c-0.6-0.6-0.9-1.3-0.9-2.2v-30.5c0-0.8,0.3-1.6,0.9-2.2c0.6-0.6,1.3-0.9,2.2-0.9h10.2
			c0.8,0,1.6,0.3,2.2,0.9c0.6,0.6,0.9,1.3,0.9,2.2v2c0,0.8,0.3,1.6,0.9,2.2c0.6,0.6,1.3,0.9,2.2,0.9h22.4c0.9,0,1.6,0.3,2.2,0.9
			c0.6,0.6,0.9,1.3,0.9,2.2V299.8L249.9,299.8z"/>
	</g>
	<g>
		<path class="st1" d="M297.1,90.9c-1.4-1.4-3.1-2.1-5-2.1h-21.4v-1c0-2-0.7-3.6-2.1-5c-1.4-1.4-3.1-2.1-5-2.1h-10.2
			c-2,0-3.6,0.7-5,2.1c-1.4,1.4-2.1,3.1-2.1,5v30.5c0,2,0.7,3.6,2.1,5c1.4,1.4,3.1,2.1,5,2.1h38.7c2,0,3.6-0.7,5-2.1
			c1.4-1.4,2.1-3.1,2.1-5V95.9C299.2,94,298.5,92.3,297.1,90.9z M295.1,118.3c0,0.8-0.3,1.6-0.9,2.2c-0.6,0.6-1.3,0.9-2.2,0.9h-38.7
			c-0.8,0-1.6-0.3-2.2-0.9c-0.6-0.6-0.9-1.3-0.9-2.2V87.8c0-0.8,0.3-1.6,0.9-2.2c0.6-0.6,1.3-0.9,2.2-0.9h10.2
			c0.8,0,1.6,0.3,2.2,0.9c0.6,0.6,0.9,1.3,0.9,2.2v2c0,0.8,0.3,1.6,0.9,2.2c0.6,0.6,1.3,0.9,2.2,0.9h22.4c0.8,0,1.6,0.3,2.2,0.9
			c0.6,0.6,0.9,1.3,0.9,2.2V118.3L295.1,118.3z"/>
	</g>
</g>
</svg>
